{
	"asset": {
		"generator": "Blocks",
		"version": "0.72",
		"copyright": "Unknown"
	},
	"buffers": {
		"model": {
			"byteLength": 374176,
			"type": "arraybuffer",
			"uri": "model.bin"
		}
	},
	"accessors": {
		"accessor_position_m0-PolyPaper12_-12208": {
			"bufferView": "vec3BufferView",
			"byteOffset": 0,
			"byteStride": 12,
			"componentType": 5126,
			"count": 7132,
			"max": [ 1.207218, 1.635121, 0.8005095 ],
			"min": [ -0.1556612, 0.6057604, 0.2044927 ],
			"type": "VEC3"
		 },
		"accessor_normal_m0-PolyPaper12_-12208": {
			"bufferView": "vec3BufferView",
			"byteOffset": 85584,
			"byteStride": 12,
			"componentType": 5126,
			"count": 7132,
			"max": [ 0.999922, 0.9995134, 0.9997715 ],
			"min": [ -0.999922, -0.9997066, -0.9997716 ],
			"type": "VEC3"
		 },
		"accessor_color_m0-PolyPaper12_-12208": {
			"bufferView": "vec4BufferView",
			"byteOffset": 0,
			"byteStride": 16,
			"componentType": 5126,
			"count": 7132,
			"max": [ 1, 0.9215686, 0.8980392, 1 ],
			"min": [ 0.01176471, 0.1019608, 0.1019608, 1 ],
			"type": "VEC4"
		 },
		"accessor_indices_0_m0-PolyPaper12_-12208": {
			"bufferView": "ushortBufferView",
			"byteOffset": 0,
			"byteStride": 0,
			"componentType": 5123,
			"count": 9168,
			"max": [ 7131 ],
			"min": [ 0 ],
			"type": "SCALAR"
		 },
		"accessor_position_m1-PolyGem25_-12210": {
			"bufferView": "vec3BufferView",
			"byteOffset": 171168,
			"byteStride": 12,
			"componentType": 5126,
			"count": 1680,
			"max": [ 0.7871774, 1.613807, 0.7542161 ],
			"min": [ 0.2601736, 0.8395569, 0.2044436 ],
			"type": "VEC3"
		 },
		"accessor_normal_m1-PolyGem25_-12210": {
			"bufferView": "vec3BufferView",
			"byteOffset": 191328,
			"byteStride": 12,
			"componentType": 5126,
			"count": 1680,
			"max": [ 0.999922, 0.999209, 0.9960625 ],
			"min": [ -0.9999221, -0.999209, -0.9960625 ],
			"type": "VEC3"
		 },
		"accessor_color_m1-PolyGem25_-12210": {
			"bufferView": "vec4BufferView",
			"byteOffset": 114112,
			"byteStride": 16,
			"componentType": 5126,
			"count": 1680,
			"max": [ 1, 1, 1, 1 ],
			"min": [ 1, 1, 1, 1 ],
			"type": "VEC4"
		 },
		"accessor_indices_0_m1-PolyGem25_-12210": {
			"bufferView": "ushortBufferView",
			"byteOffset": 18336,
			"byteStride": 0,
			"componentType": 5123,
			"count": 1680,
			"max": [ 1679 ],
			"min": [ 0 ],
			"type": "SCALAR"
		 }
	},
	"bufferViews": {
		"ushortBufferView": {
			"buffer": "model",
			"byteLength": 21696,
			"byteOffset": 0,
			"target": 34963
		},
		"vec3BufferView": {
			"buffer": "model",
			"byteLength": 211488,
			"byteOffset": 21696,
			"target": 34962
		},
		"vec4BufferView": {
			"buffer": "model",
			"byteLength": 140992,
			"byteOffset": 233184,
			"target": 34962
		}
	},
	"meshes": {
		"mesh_m0-PolyPaper12_-12208": {
			"name": "mesh_m0-PolyPaper12_-12208",
			"primitives": [
				{
					"attributes": {
						"POSITION": "accessor_position_m0-PolyPaper12_-12208",
						"NORMAL": "accessor_normal_m0-PolyPaper12_-12208",
						"COLOR": "accessor_color_m0-PolyPaper12_-12208"
					},
					"indices": "accessor_indices_0_m0-PolyPaper12_-12208",
					"material": "material_mat12",
					"mode": 4
				}
			]
		},
		"mesh_m1-PolyGem25_-12210": {
			"name": "mesh_m1-PolyGem25_-12210",
			"primitives": [
				{
					"attributes": {
						"POSITION": "accessor_position_m1-PolyGem25_-12210",
						"NORMAL": "accessor_normal_m1-PolyGem25_-12210",
						"COLOR": "accessor_color_m1-PolyGem25_-12210"
					},
					"indices": "accessor_indices_0_m1-PolyGem25_-12210",
					"material": "material_mat25",
					"mode": 4
				}
			]
		}
	},
	"shaders": {
		"vertex_mat12": {
			"type": 35633,
			"uri": "https://vr.google.com/shaders/w/vs.glsl"
		},
		"fragment_mat12": {
			"type": 35632,
			"uri": "https://vr.google.com/shaders/w/fs.glsl"
		},
		"vertex_mat25": {
			"type": 35633,
			"uri": "https://vr.google.com/shaders/w/gemVS.glsl"
		},
		"fragment_mat25": {
			"type": 35632,
			"uri": "https://vr.google.com/shaders/w/gemFS.glsl"
		}
	},
	"programs": {
		"program_mat12": {
			"attributes": [
				"a_position",
				"a_normal",
				"a_color"				
			],
			"vertexShader": "vertex_mat12",
			"fragmentShader": "fragment_mat12"
		},
		"program_mat25": {
			"attributes": [
				"a_position",
				"a_normal",
				"a_color"				
			],
			"vertexShader": "vertex_mat25",
			"fragmentShader": "fragment_mat25"
		}
	},
	"techniques": {
		"technique_mat12": {
			"program": "program_mat12",
			"extras": {"gvrss" : "https://vr.google.com/shaders/w/gvrss/paper.json"},
			"parameters": {
				"position": {
					"type": 35665,
					"semantic": "POSITION"
				},
				"normal": {
					"type": 35665,
					"semantic": "NORMAL"
				},
				"color": {
					"type": 35666,
					"semantic": "COLOR"
				},
				"modelViewMatrix": {
					"type": 35676,
					"semantic": "MODELVIEW"
				},
				"projectionMatrix": {
					"type": 35676,
					"semantic": "PROJECTION"
				},
				"normalMatrix": {
					"type": 35675,
					"semantic": "MODELVIEWINVERSETRANSPOSE"
				},
				"color": {
					"type": 35666
				},
				"roughness": {
					"type": 5126
				},
				"metallic": {
					"type": 5126
				},
				"light0Pos": {
					"type": 35666
				},
				"light0Color": {
					"type": 35666
				},
				"light1Pos": {
					"type": 35666
				},
				"light1Color": {
					"type": 35666
				}				
			},
			"attributes": {
				"a_position": "position",
				"a_normal": "normal",
				"a_color": "color"				
			},
			"uniforms": {
				"u_modelViewMatrix": "modelViewMatrix",
				"u_projectionMatrix": "projectionMatrix",
				"u_normalMatrix": "normalMatrix",
				"u_color": "color",
				"u_roughness": "roughness",
				"u_metallic": "metallic",
				"u_light0Pos": "light0Pos",
				"u_light0Color": "light0Color",
				"u_light1Pos": "light1Pos",
				"u_light1Color": "light1Color"				
			},
			"states": {
				"enable": [
					2929,
					2884
				],
				"functions": {
					"cullFace": [1029]
				}
			}
		},
		"technique_mat25": {
			"program": "program_mat25",
			"extras": {"gvrss" : "https://vr.google.com/shaders/w/gvrss/gem.json"},
			"parameters": {
				"position": {
					"type": 35665,
					"semantic": "POSITION"
				},
				"normal": {
					"type": 35665,
					"semantic": "NORMAL"
				},
				"color": {
					"type": 35666,
					"semantic": "COLOR"
				},
				"modelViewMatrix": {
					"type": 35676,
					"semantic": "MODELVIEW"
				},
				"projectionMatrix": {
					"type": 35676,
					"semantic": "PROJECTION"
				},
				"normalMatrix": {
					"type": 35675,
					"semantic": "MODELVIEWINVERSETRANSPOSE"
				},
				"color": {
					"type": 35666
				},
				"roughness": {
					"type": 5126
				},
				"metallic": {
					"type": 5126
				},
				"gem": {
					"type": 35678
				},
				"light0Pos": {
					"type": 35666
				},
				"light0Color": {
					"type": 35666
				},
				"light1Pos": {
					"type": 35666
				},
				"light1Color": {
					"type": 35666
				}				
			},
			"attributes": {
				"a_position": "position",
				"a_normal": "normal",
				"a_color": "color"				
			},
			"uniforms": {
				"u_modelViewMatrix": "modelViewMatrix",
				"u_projectionMatrix": "projectionMatrix",
				"u_normalMatrix": "normalMatrix",
				"u_color": "color",
				"u_roughness": "roughness",
				"u_metallic": "metallic",
				"u_gem": "gem",
				"u_light0Pos": "light0Pos",
				"u_light0Color": "light0Color",
				"u_light1Pos": "light1Pos",
				"u_light1Color": "light1Color"				
			},
			"states": {
				"enable": [
					2929,
					2884
				],
				"functions": {
					"cullFace": [1029]
				}
			}
		}
	},
	"samplers": {
		"sampler_LINEAR_LINEAR_REPEAT": {
			"magFilter": 9729,
			"minFilter": 9987,
			"wrapS": 10497,
			"wrapT": 10497
		}
	},
	"textures": {
		"texture_mat25_gem": {
			"format": 6408,
			"internalFormat": 6408,
			"sampler": "sampler_LINEAR_LINEAR_REPEAT",
			"source": "image_mat25_gem",
			"target": 3553,
			"type": 5121
		}
	},
	"images": {
		"image_mat25_gem": {
			"uri": "https://vr.google.com/shaders/w/GemRefractions.png"
		}
	},
	"materials": {
		"material_mat12": {
			"technique": "technique_mat12",
			"values": {
				"color": [1, 0.9215686, 0.2313726, 1],
				"roughness": 0.8,
				"metallic": 0,
				"light0Pos": [-0.02, 4.11, -0.54, 0],
				"light0Color": [0.8, 0.8, 0.8, 0],
				"light1Pos": [0.02, -4.11, 0.54, 0],
				"light1Color": [0.64, 0.64, 0.64, 0]				
			},
			"name": "material_mat12"
		},
		"material_mat25": {
			"technique": "technique_mat25",
			"values": {
				"color": [1, 1, 1, 1],
				"roughness": 0.01,
				"metallic": 0,
				"gem": "texture_mat25_gem",
				"light0Pos": [-0.02, 4.11, -0.54, 0],
				"light0Color": [0.8, 0.8, 0.8, 0],
				"light1Pos": [0.02, -4.11, 0.54, 0],
				"light1Color": [0.64, 0.64, 0.64, 0]				
			},
			"name": "material_mat25"
		}
	},
	"nodes": {
		"node_MeshObject-1681322304-PolyPaper12": {
			"name": "node_MeshObject-1681322304-PolyPaper12",
			"meshes": [
				"mesh_m0-PolyPaper12_-12208"
			],
			"matrix": [1, 0, 0, 0, 0, 1, 0, 0, 0, 0, 1, 0, 0, 0, 0, 1]
		},
		"node_MeshObject912278016-PolyGem25": {
			"name": "node_MeshObject912278016-PolyGem25",
			"meshes": [
				"mesh_m1-PolyGem25_-12210"
			],
			"matrix": [1, 0, 0, 0, 0, 1, 0, 0, 0, 0, 1, 0, 0, 0, 0, 1]
		}
	},
	"scene": "defaultScene",
	"scenes": {
		"defaultScene": {
			"nodes": [
				"node_MeshObject-1681322304-PolyPaper12",
				"node_MeshObject912278016-PolyGem25"
			],
			"extras": {

			}
		}
	}
}